HIERARCHY
ROOT Hips
{
	OFFSET 0.000000 0.000000 0.000000
	CHANNELS 6 Xposition Yposition Zposition Zrotation Yrotation Xrotation 
	JOINT LHipJoint
	{
		OFFSET 0.000000 0.000000 0.000000
		CHANNELS 3 Zrotation Yrotation Xrotation
		JOINT LeftUpLeg
		{
			OFFSET 1.363060 -1.794630 0.839290
			CHANNELS 3 Zrotation Yrotation Xrotation
			JOINT LeftLeg
			{
				OFFSET 2.448110 -6.726130 0.000000
				CHANNELS 3 Zrotation Yrotation Xrotation
				JOINT LeftFoot
				{
					OFFSET 2.562200 -7.039590 0.000000
					CHANNELS 3 Zrotation Yrotation Xrotation
					JOINT LeftToeBase
					{
						OFFSET 0.157640 -0.433110 2.322550
						CHANNELS 3 Zrotation Yrotation Xrotation
						End Site
						{
							OFFSET 0.000000 0.000000 0.000000
						}
					}
				}
			}
		}
	}
	JOINT RHipJoint
	{
		OFFSET 0.000000 0.000000 0.000000
		CHANNELS 3 Zrotation Yrotation Xrotation
		JOINT RightUpLeg
		{
			OFFSET -1.305520 -1.794630 0.839290
			CHANNELS 3 Zrotation Yrotation Xrotation
			JOINT RightLeg
			{
				OFFSET -2.542530 -6.985550 0.000000
				CHANNELS 3 Zrotation Yrotation Xrotation
				JOINT RightFoot
				{
					OFFSET -2.568260 -7.056230 0.000000
					CHANNELS 3 Zrotation Yrotation Xrotation
					JOINT RightToeBase
					{
						OFFSET -0.164730 -0.452590 2.363150
						CHANNELS 3 Zrotation Yrotation Xrotation
						End Site
						{
							OFFSET 0.000000 0.000000 0.000000
						}
					}
				}
			}
		}
	}
}
MOTION
Frames: 19
Frame Time: 0.008333
2.709649 16.438709 1.109775 171.607648 -61.121636 -154.617473 -10.414595 0.792513 -2.754581 -3.986650 29.702129 -24.510285 -2.033072 0.173523 19.307015 4.021529 30.036604 4.302229 7.082499 0.000000 -58.901700 11.239823 0.496010 5.469131 -10.519726 3.003186 -44.450359 0.214332 -2.059390 34.363231 -0.416193 -0.157133 -1.866143 -0.251900 0.000000 -80.042900
2.669347 16.469171 1.102830 173.470912 -58.308121 -155.520471 -10.517617 0.815510 -2.850952 -3.993823 30.601399 -24.257463 -2.063555 0.130565 18.477040 4.209184 31.496022 4.773053 7.794500 0.000000 -58.099800 11.000790 0.330721 6.026307 -10.415155 5.038664 -45.523476 0.241843 -1.897076 32.740821 -0.229448 0.655075 -0.757753 -0.163000 -0.000000 -80.194401
2.630084 16.503309 1.097489 175.181499 -55.537581 -156.239818 -10.637681 0.823249 -2.940459 -3.925158 31.450699 -23.984722 -2.089172 0.086641 17.617942 4.372001 32.815624 5.307949 8.536100 -0.000001 -57.269300 10.738668 0.145616 6.550131 -10.245412 6.980742 -46.456405 0.304929 -1.721940 30.833354 -0.023299 1.526830 0.540126 -0.035000 -0.000000 -80.412300
2.593106 16.540168 1.093084 176.738681 -52.858933 -156.791755 -10.774302 0.816035 -3.021836 -3.775279 32.219242 -23.680534 -2.106365 0.042649 16.738263 4.507461 33.981478 5.928720 9.312200 0.000000 -56.657399 10.461688 -0.050820 7.027799 -10.010465 8.795006 -47.223983 0.404709 -1.537361 28.680027 0.196426 2.438374 2.008078 0.138800 -0.000000 -80.658400
2.559470 16.578585 1.089263 178.151400 -50.319163 -157.201685 -10.924962 0.795251 -3.097428 -3.544938 32.905245 -23.353419 -2.117948 0.002004 15.871817 4.609121 34.931499 6.600083 10.072200 0.000000 -56.083401 10.177980 -0.249507 7.452303 -9.712102 10.458901 -47.814296 0.540015 -1.346276 26.333380 0.421533 3.361207 3.618999 0.360700 0.000000 -80.928600
2.530209 16.617374 1.085386 179.420446 -47.958570 -157.484086 -11.084622 0.764179 -3.166906 -3.242283 33.500042 -23.009445 -2.124854 -0.033640 15.035582 4.675133 35.641590 7.314451 10.789801 -0.000000 -55.627900 9.897748 -0.440160 7.820502 -9.360581 11.955114 -48.229604 0.706541 -1.151875 23.859741 0.643243 4.267015 5.333284 0.628699 0.000000 -81.185000
2.506366 16.655396 1.080943 -179.456787 -45.812666 -157.651271 -11.245925 0.727657 -3.226744 -2.885755 33.979915 -22.649220 -2.125473 -0.065086 14.227260 4.708348 36.123012 8.073905 11.458100 0.000000 -55.380800 9.632632 -0.611708 8.130814 -8.974226 13.266123 -48.486853 0.897008 -0.957996 21.336622 0.853730 5.133808 7.100980 0.937000 -0.000000 -81.387900
2.488771 16.691509 1.075418 -178.483085 -43.906141 -157.712365 -11.400931 0.691196 -3.274206 -2.497288 34.336716 -22.283466 -2.120786 -0.092489 13.450310 4.711407 36.383468 8.865897 12.059900 -0.000000 -55.385100 9.392766 -0.755532 8.385069 -8.570576 14.381324 -48.615247 1.101883 -0.768209 18.843943 1.046608 5.943612 8.866611 1.275500 0.000000 -81.510701
2.477602 16.724593 1.068799 -177.641368 -42.253472 -157.689935 -11.543637 0.658223 -3.313596 -2.095223 34.614809 -21.952050 -2.120548 -0.111443 12.743535 4.680440 36.369045 9.633209 12.520800 0.000000 -55.398699 9.181974 -0.868102 8.589843 -8.157848 15.306016 -48.649725 1.312328 -0.584862 16.451828 1.216978 6.675775 10.576004 1.628100 0.000000 -81.536200
2.473522 16.754010 1.060765 -176.943430 -40.862481 -157.583558 -11.665725 0.634361 -3.336419 -1.708974 34.773053 -21.646263 -2.118522 -0.127150 12.067915 4.627539 36.174456 10.405060 12.894000 0.000000 -55.682900 9.010437 -0.944463 8.745903 -7.754683 16.026253 -48.630377 1.517843 -0.412622 14.230964 1.364423 7.335225 12.173347 1.984300 -0.000000 -81.456000
2.476283 16.779096 1.051502 -176.375377 -39.731706 -157.407949 -11.762450 0.621393 -3.344829 -1.356941 34.839728 -21.392737 -2.120054 -0.138321 11.436554 4.554750 35.803253 11.149605 13.155001 0.000000 -56.142200 8.880274 -0.985860 8.859099 -7.366121 16.548977 -48.592775 1.711189 -0.254069 12.229314 1.489259 7.918572 13.615123 2.329400 0.000000 -81.280199
2.485619 16.799547 1.041377 -175.926029 -38.854811 -157.176242 -11.830089 0.619654 -3.340993 -1.054449 34.835091 -21.209049 -2.128341 -0.144864 10.852429 4.465920 35.277997 11.845752 13.298500 0.000000 -56.703000 8.792615 -0.994970 8.934314 -6.997278 16.884042 -48.564733 1.886809 -0.111392 10.476764 1.593123 8.425480 14.871151 2.650800 -0.000000 -81.031501
2.500921 16.815317 1.030804 -175.581796 -38.220709 -156.900676 -11.866523 0.627320 -3.330025 -0.811524 34.790955 -21.114828 -2.147638 -0.145947 10.324160 4.363782 34.615843 12.475746 13.321899 0.000000 -57.322199 8.746651 -0.975534 8.975624 -6.649335 17.043932 -48.567539 2.041700 0.013566 8.991226 1.678719 8.859683 15.922659 2.938900 0.000000 -80.735900
2.521428 16.826616 1.020353 -175.332127 -37.816534 -156.590221 -11.870927 0.642128 -3.315073 -0.637211 34.716250 -21.112117 -2.177395 -0.143167 9.840367 4.254553 33.866930 13.040290 13.253100 -0.000000 -58.028800 8.741664 -0.930369 8.984035 -6.324804 17.038576 -48.615671 2.174316 0.119015 7.780215 1.749285 9.231245 16.761911 3.189400 -0.000001 -80.421100
2.546167 16.833934 1.010681 -175.159970 -37.624569 -156.255616 -11.845460 0.659463 -3.302474 -0.530266 34.633087 -21.206056 -2.219066 -0.136362 9.400100 4.141724 33.055681 13.527741 13.101100 0.000000 -58.742400 8.772745 -0.862897 8.961952 -6.030409 16.896422 -48.707152 2.284105 0.206122 6.821067 1.805353 9.529449 17.403838 3.393300 -0.000000 -80.128700
2.573952 16.837849 1.002449 -175.054498 -37.626745 -155.904404 -11.793821 0.675981 -3.297609 -0.494606 34.556373 -21.394838 -2.272264 -0.126312 8.994798 4.029524 32.218054 13.941373 12.890100 -0.000000 -59.485599 8.835559 -0.774483 8.906546 -5.762191 16.624686 -48.845397 2.373312 0.273743 6.112156 1.850654 9.772687 17.856681 3.554900 -0.000001 -79.868500
2.603527 16.839084 0.996272 -175.002533 -37.800836 -155.543815 -11.722644 0.687675 -3.306164 -0.526678 34.502873 -21.674095 -2.336913 -0.113044 8.617700 3.920801 31.375645 14.278066 12.633100 0.000000 -60.208600 8.922169 -0.666726 8.816625 -5.520837 16.245567 -49.020298 2.444473 0.323633 5.626379 1.886286 9.959976 18.145567 3.673500 0.000000 -79.658701
2.633556 16.838357 0.992797 -174.990840 -38.124234 -155.180642 -11.640158 0.691486 -3.331950 -0.622781 34.484480 -22.035603 -2.411825 -0.096969 8.257263 3.818352 30.550465 14.541230 12.346399 -0.000000 -60.902600 9.023662 -0.540664 8.690129 -5.302894 15.776425 -49.221197 2.501286 0.357507 5.339941 1.913763 10.095718 18.295716 3.751800 -0.000001 -79.503000
2.662922 16.836399 0.992496 -175.009236 -38.572319 -154.821446 -11.554727 0.685713 -3.378655 -0.778499 34.515646 -22.470353 -2.496796 -0.077954 7.904840 3.722888 29.747484 14.728668 12.034100 0.000001 -61.506500 9.130755 -0.397466 8.526346 -5.105692 15.237610 -49.432042 2.547327 0.378234 5.219923 1.933703 10.178612 18.337379 3.791400 0.000000 -79.404600
